<svg width="194" height="129" viewBox="0 0 194 129" fill="none" xmlns="http://www.w3.org/2000/svg">
<g opacity="0.1">
<path opacity="0.1" d="M128.13 125.12V128.12H125.13" stroke="#0032E9" stroke-miterlimit="10"/>
<path opacity="0.1" d="M119.36 128.12H6.88989" stroke="#0032E9" stroke-miterlimit="10" stroke-dasharray="5.77 5.77"/>
<path opacity="0.1" d="M4 128.12H1V125.12" stroke="#0032E9" stroke-miterlimit="10"/>
<path opacity="0.1" d="M1 119.35V6.88" stroke="#0032E9" stroke-miterlimit="10" stroke-dasharray="5.77 5.77"/>
<path opacity="0.1" d="M1 4V1H4" stroke="#0032E9" stroke-miterlimit="10"/>
<path opacity="0.1" d="M9.77002 1H122.24" stroke="#0032E9" stroke-miterlimit="10" stroke-dasharray="5.77 5.77"/>
<path opacity="0.1" d="M125.13 1H128.13V4" stroke="#0032E9" stroke-miterlimit="10"/>
<path opacity="0.1" d="M128.13 9.76001V122.24" stroke="#0032E9" stroke-miterlimit="10" stroke-dasharray="5.77 5.77"/>
</g>
<path d="M65.5105 49.6404C67.4728 49.6422 69.4127 50.0683 71.2036 50.8907C72.9945 51.7132 74.5963 52.9136 75.9045 54.4136L80 50.6269C77.3785 47.637 73.9392 45.5269 70.1308 44.5721C66.3225 43.6172 62.322 43.8619 58.6512 45.2742C54.9805 46.6865 51.81 49.2008 49.5536 52.489C47.2971 55.7773 46.0595 59.6867 46.0021 63.7073C45.9447 67.7278 47.0703 71.6728 49.2319 75.0273C51.3936 78.3819 54.4909 80.9903 58.1198 82.5122C61.7486 84.034 65.7405 84.3987 69.5745 83.5586C73.4084 82.7185 76.9065 80.7126 79.6122 77.8027L75.6097 73.9045C74.0153 75.6146 72.0326 76.8928 69.8389 77.6249C67.6452 78.357 65.3087 78.5202 63.0385 78.0998C60.7682 77.6795 58.635 76.6888 56.8293 75.2162C55.0236 73.7436 53.6018 71.8351 52.6911 69.6612C51.7803 67.4873 51.4089 65.1158 51.6101 62.7588C51.8114 60.4017 52.5789 58.1325 53.8441 56.1541C55.1094 54.1756 56.8329 52.5495 58.8607 51.4212C60.8884 50.2928 63.1571 49.6974 65.4641 49.6881L65.5105 49.6404Z" fill="#7108D8"/>
<path d="M47 44.9093L42.9594 41C39.8029 44.0152 37.2982 47.5992 35.589 51.5463C33.8799 55.4933 33 59.7256 33 64C33 68.2744 33.8799 72.5067 35.589 76.4537C37.2982 80.4008 39.8029 83.9848 42.9594 87L47 83.0907C44.3683 80.5944 42.2789 77.6216 40.8528 74.3445C39.4268 71.0675 38.6925 67.5514 38.6925 64C38.6925 60.4486 39.4268 56.9325 40.8528 53.6555C42.2789 50.3784 44.3683 47.4056 47 44.9093Z" fill="#414042"/>
<path d="M85 37.4753C79.4907 33.2602 72.8335 30.9914 66 31V36.6759C71.6385 36.6705 77.1326 38.5351 81.6877 42L85 37.4753Z" fill="#414042"/>
<path d="M66 91.4006V97C72.3922 97.0072 78.6477 95.1435 84 91.6372L80.8559 87C76.433 89.879 71.2722 91.4078 66 91.4006Z" fill="#414042"/>
<path d="M66 84.4849C61.6698 84.482 57.445 83.187 53.8976 80.7751C50.3501 78.3632 47.6513 74.9508 46.1663 71L41 73.3303C42.9455 78.2367 46.3755 82.4556 50.8382 85.4312C55.3009 88.4069 60.5869 89.9997 66 90V84.4849Z" fill="#414042"/>
<path d="M45.517 63C45.8524 57.7395 48.1558 52.8049 51.9597 49.1974C55.7636 45.59 60.7832 43.5798 66 43.5747V38C59.3193 37.9998 52.8943 40.595 48.0546 45.2485C43.2149 49.9021 40.331 56.2577 40 63H45.517Z" fill="#414042"/>
<g opacity="0.1">
<g opacity="0.1">
<path d="M193.029 6.78762V4H190.014" fill="black"/>
<path d="M193.029 6.78762V4H190.014" stroke="#20263C" stroke-miterlimit="10"/>
</g>
<g opacity="0.1">
<path d="M68.0144 4H65V6.78762" fill="black"/>
<path d="M68.0144 4H65V6.78762" stroke="#20263C" stroke-miterlimit="10"/>
</g>
<g opacity="0.1">
<path d="M193.029 7.78762H80.0192Z" fill="black"/>
<path d="M193.029 7.78762H80.0192" stroke="#20263C" stroke-miterlimit="10" stroke-dasharray="5.77 5.77"/>
</g>
<g opacity="0.1">
<path d="M193.029 113.295V8.78762Z" fill="black"/>
<path d="M193.029 113.295V8.78762" stroke="#20263C" stroke-miterlimit="10" stroke-dasharray="5.77 5.77"/>
</g>
<g opacity="0.1">
<path d="M71.0288 8.78762V113.305Z" fill="black"/>
<path d="M71.0288 8.78762V113.305" stroke="#20263C" stroke-miterlimit="10" stroke-dasharray="5.77 5.77"/>
</g>
<g opacity="0.1">
<path d="M190.014 117.092H193.029V114.305" fill="black"/>
<path d="M190.014 117.092H193.029V114.305" stroke="#20263C" stroke-miterlimit="10"/>
</g>
<g opacity="0.1">
<path d="M65 114.305V117.092H68.0144" fill="black"/>
<path d="M65 114.305V117.092H68.0144" stroke="#20263C" stroke-miterlimit="10"/>
</g>
<g opacity="0.1">
<path d="M80.019 118.092H193.029Z" fill="black"/>
<path d="M80.019 118.092H193.029" stroke="#20263C" stroke-miterlimit="10" stroke-dasharray="5.77 5.77"/>
</g>
</g>
<path d="M128.209 49.197C126.237 49.1986 124.288 49.5946 122.488 50.3588C120.689 51.123 119.079 52.2384 117.765 53.6323L113.65 50.1136C116.284 47.3354 119.74 45.3747 123.566 44.4875C127.393 43.6002 131.413 43.8275 135.101 45.1399C138.789 46.4522 141.975 48.7885 144.242 51.8439C146.51 54.8994 147.753 58.532 147.811 62.268C147.868 66.0039 146.737 69.6696 144.565 72.7866C142.393 75.9037 139.281 78.3275 135.635 79.7416C131.989 81.1557 127.978 81.4946 124.125 80.714C120.273 79.9333 116.758 78.0694 114.039 75.3655L118.061 71.7433C119.663 73.3324 121.655 74.5201 123.86 75.2003C126.064 75.8806 128.412 76.0323 130.693 75.6416C132.974 75.2511 135.117 74.3305 136.932 72.9622C138.746 71.5938 140.175 69.8204 141.09 67.8004C142.005 65.7804 142.378 63.5768 142.176 61.3867C141.974 59.1964 141.202 57.0879 139.931 55.2495C138.66 53.4111 136.928 51.9001 134.89 50.8517C132.853 49.8032 130.573 49.2499 128.255 49.2413L128.209 49.197Z" fill="#7108D8"/>
<path d="M146.808 44.8008L150.868 41.1683C154.04 43.97 156.556 47.3003 158.274 50.9679C159.991 54.6355 160.875 58.5682 160.875 62.54C160.875 66.5118 159.991 70.4445 158.274 74.1121C156.556 77.7797 154.04 81.11 150.868 83.9117L146.808 80.2792C149.452 77.9596 151.552 75.1973 152.985 72.1522C154.418 69.1072 155.155 65.84 155.155 62.54C155.155 59.24 154.418 55.9728 152.985 52.9278C151.552 49.8827 149.452 47.1204 146.808 44.8008Z" fill="#414042"/>
<path d="M108.626 37.8931C114.161 33.9764 120.851 31.8682 127.717 31.8762V37.1503C122.051 37.1453 116.531 38.8779 111.954 42.0975L108.626 37.8931Z" fill="#414042"/>
<path d="M127.717 88.0008V93.2038C121.294 93.2105 115.009 91.4787 109.631 88.2207L112.79 83.9117C117.234 86.5869 122.419 88.0075 127.717 88.0008Z" fill="#414042"/>
<path d="M127.717 81.5747C132.068 81.572 136.313 80.3687 139.877 78.1275C143.442 75.8864 146.154 72.7155 147.646 69.0444L152.837 71.2098C150.882 75.7688 147.436 79.6891 142.951 82.454C138.467 85.219 133.156 86.6991 127.717 86.6994V81.5747Z" fill="#414042"/>
<path d="M148.298 61.6108C147.961 56.7227 145.647 52.1374 141.825 48.7853C138.002 45.4333 132.959 43.5654 127.717 43.5607V38.3806C134.43 38.3804 140.885 40.7919 145.748 45.116C150.611 49.4401 153.509 55.3458 153.842 61.6108H148.298Z" fill="#414042"/>
</svg>
